<?xml version="1.0" standalone="no"?>
<!DOCTYPE svg PUBLIC "-//W3C//DTD SVG 1.1//EN" "http://www.w3.org/Graphics/SVG/1.1/DTD/svg11.dtd" >
<svg xmlns="http://www.w3.org/2000/svg">
<metadata>
Created by FontForge 20120731 at Tue Jan 17 16:08:32 2017
 By admin
</metadata>
<defs>
<font id="iconfont" horiz-adv-x="1024" >
  <font-face 
    font-family="iconfont"
    font-weight="500"
    font-stretch="normal"
    units-per-em="1024"
    panose-1="2 0 6 3 0 0 0 0 0 0"
    ascent="896"
    descent="-128"
    x-height="792"
    bbox="-57 -213 1297 896.309"
    underline-thickness="0"
    underline-position="0"
    unicode-range="U+0078-E7FA"
  />
<missing-glyph 
 />
    <glyph glyph-name=".notdef" 
 />
    <glyph glyph-name=".notdef" 
 />
    <glyph glyph-name=".null" horiz-adv-x="0" 
 />
    <glyph glyph-name="nonmarkingreturn" horiz-adv-x="341" 
 />
    <glyph glyph-name="x" unicode="x" horiz-adv-x="1001" 
d="M281 543q-27 -1 -53 -1h-83q-18 0 -36.5 -6t-32.5 -18.5t-23 -32t-9 -45.5v-76h912v41q0 16 -0.5 30t-0.5 18q0 13 -5 29t-17 29.5t-31.5 22.5t-49.5 9h-133v-97h-438v97zM955 310v-52q0 -23 0.5 -52t0.5 -58t-10.5 -47.5t-26 -30t-33 -16t-31.5 -4.5q-14 -1 -29.5 -0.5
t-29.5 0.5h-32l-45 128h-439l-44 -128h-29h-34q-20 0 -45 1q-25 0 -41 9.5t-25.5 23t-13.5 29.5t-4 30v167h911zM163 247q-12 0 -21 -8.5t-9 -21.5t9 -21.5t21 -8.5q13 0 22 8.5t9 21.5t-9 21.5t-22 8.5zM316 123q-8 -26 -14 -48q-5 -19 -10.5 -37t-7.5 -25t-3 -15t1 -14.5
t9.5 -10.5t21.5 -4h37h67h81h80h64h36q23 0 34 12t2 38q-5 13 -9.5 30.5t-9.5 34.5q-5 19 -11 39h-368zM336 498v228q0 11 2.5 23t10 21.5t20.5 15.5t34 6h188q31 0 51.5 -14.5t20.5 -52.5v-227h-327z" />
    <glyph glyph-name="yunshangchuan" unicode="&#xe62d;" 
d="M1024 203q0 -26 -8.5 -48.5t-24.5 -40.5t-37 -30t-46 -16l1 -1h-17h-4h-4h-676q-5 -1 -17 -1q-39 0 -74 15t-61 41t-41 61t-15 75t15 75t41 61t61 41.5t74 15.5h2q-2 8 -2 15v16q0 73 28 137.5t76 112t112 75.5t136.5 28t137 -28t113 -75.5t76 -112t27.5 -137.5
q0 -38 -8 -74t-23 -69q5 1 11 1.5t11 0.5q27 0 52.5 -11t43.5 -29.5t29 -44t11 -53.5zM666 325q20 0 26 4.5t-8 21.5q-14 19 -31.5 48.5t-36.5 60t-38.5 57.5t-37.5 39q-19 13 -27.5 14t-25.5 -12q-18 -15 -35.5 -38.5t-35.5 -50.5t-36 -52.5t-36 -44.5t-13 -33t25 -14h17
q9 0 19.5 -0.5t21.5 -0.5h17q14 -1 18.5 -10t4.5 -24q0 -18 -0.5 -31t-0.5 -25.5t-0.5 -25.5t-0.5 -31q0 -7 1.5 -15t5.5 -15.5t12 -12t22 -4.5h23q9 0 28 -1q24 0 27.5 12.5t3.5 38.5q0 24 1 43t1 51q0 24 4.5 37t19.5 13q11 0 32 0.5t33 0.5z" />
    <glyph glyph-name="heimingdan" unicode="&#xe619;" 
d="M797 382q46 0 86.5 -17.5t71 -48t48.5 -71t18 -86.5t-18 -86.5t-48.5 -71t-71 -48.5t-86.5 -18q-47 0 -87.5 18t-71 48.5t-48 71t-17.5 86.5t17.5 86.5t48 71t71 48t87.5 17.5zM908 124q15 0 25.5 9.5t10.5 24.5t-10.5 26t-25.5 11h-220q-15 0 -26 -11t-11 -26t11 -24.5
t26 -9.5h220zM501 66q4 -20 13 -42.5t27 -45.5t45 -45t68 -42q-27 -6 -64 -10q-31 -4 -76 -6.5t-103 -2.5q-29 0 -68 2t-80.5 5.5t-82.5 8.5t-74.5 10.5t-57 10.5t-29.5 10q-10 8 -15.5 49.5t4.5 108.5q6 37 30.5 57t57.5 31.5t68 21t63 26.5q21 13 33 26t16.5 25t4.5 25.5
t-1 29.5q-2 23 -16.5 37t-30.5 28q-8 7 -14.5 20t-12.5 26q-5 15 -10 32q-7 2 -14 8q-6 5 -12.5 14t-11.5 26q-7 18 -5 32t6 25t13 22q0 38 4 77q4 33 14 70.5t32 66.5q19 29 43 47.5t48.5 28.5t49.5 13.5t48 3.5q30 0 57.5 -7t50.5 -18.5t41.5 -25.5t29.5 -28
q27 -33 39 -72t17 -75q5 -41 5 -82q7 -6 11 -14q5 -7 7.5 -18t0.5 -28q-2 -22 -9 -34.5t-15 -19.5q-9 -9 -19 -12q-5 -17 -10 -32q-5 -13 -12 -26t-15 -20q-9 -8 -14 -16t-8 -16.5t-6.5 -18t-11.5 -19.5q-47 -74 -55 -133t6 -115z" />
    <glyph glyph-name="shezhi" unicode="&#xe600;" horiz-adv-x="1000" 
d="M514 497q-74 0 -126.5 -52t-52.5 -126t52.5 -126.5t126.5 -52.5t126 52.5t52 126.5t-52 126t-126 52zM514 220q-41 0 -70 29t-29 70t29 70t70 29t70 -29t29 -70t-29 -70t-70 -29zM899 408q-24 24 -27 32q-2 9 4 45q6 22 5.5 51.5t-14.5 49.5q-10 14 -27.5 23t-29.5 12
t-33 6q-35 4 -42 10q-6 5 -21 37q-9 20 -15.5 31.5t-20 26t-29.5 19.5q-11 4 -23 4q-26 0 -72 -26q-31 -17 -40.5 -17t-40.5 17q-46 26 -72 26q-11 0 -22 -4q-16 -5 -30 -19.5t-20 -26t-15 -31.5q-15 -32 -22 -37q-7 -6 -41 -10q-21 -3 -33.5 -6t-29.5 -12t-27 -23
q-14 -20 -15 -49.5t6 -51.5q6 -36 3 -45q-2 -8 -27 -32q-15 -15 -23.5 -25t-18 -28t-9.5 -36t9.5 -36.5t18 -28t23.5 -25.5q25 -24 27 -32q3 -8 -3 -44q-7 -23 -6 -52t15 -50q10 -14 27 -23t29.5 -11.5t33.5 -5.5q34 -5 41 -10t22 -38q9 -20 15 -31t20 -25.5t30 -20.5
q11 -4 22 -4q26 0 72 26q32 18 41 18t40 -18q46 -26 72 -26q12 0 23 4q16 6 29.5 20.5t20 25.5t15.5 31q15 33 21 38q7 5 42 10q21 3 33 5.5t29.5 11.5t27.5 23q14 21 14.5 50t-5.5 52q-6 36 -4 44q3 8 27 32q16 16 24.5 25.5t17.5 28t9 36.5t-9 36t-17.5 28t-24.5 25z
M843 286q-38 -38 -46 -65q-9 -27 1 -82q6 -35 4 -42q-6 -3 -36 -8q-55 -7 -79 -25q-22 -17 -45 -67q-13 -28 -19 -35q-7 3 -30 15q-49 28 -79 28t-80 -28q-23 -12 -30 -15q-6 7 -18 35q-23 50 -46 67q-23 18 -78 25q-30 5 -36 8q-2 8 4 42q9 55 1 82q-8 26 -47 65
q-27 27 -27 33t27 33q39 38 47 64q8 28 -1 83q-6 34 -4 41q6 4 36 8q55 8 78 25t46 68q12 27 18 34q8 -2 30 -15q50 -28 80 -28t79 28q23 13 30 15q6 -7 19 -34q23 -51 45 -68q24 -17 79 -25q29 -4 36 -8q2 -7 -4 -41q-10 -55 -1 -82q8 -27 46 -65q28 -27 28 -33t-28 -33z
" />
    <glyph glyph-name="weixin" unicode="&#xe62f;" horiz-adv-x="1000" 
d="M668 471q14 0 30 -2q-20 94 -109 155.5t-203 61.5q-128 0 -218.5 -76.5t-90.5 -185.5q0 -123 124 -209l-31 -93l108 54q78 -15 108 -15q13 0 29 1q-9 33 -9 65q0 101 76 172.5t186 71.5zM502 555q18 0 28.5 -10.5t10.5 -28t-10.5 -28t-28.5 -10.5t-32 11t-14 27.5
t14 27.5t32 11zM286 478q-18 0 -32.5 11t-14.5 27.5t14.5 27.5t32.5 11q17 0 27.5 -10.5t10.5 -28t-10.5 -28t-27.5 -10.5zM950 230q0 92 -78.5 158.5t-183.5 66.5q-110 0 -186.5 -66t-76.5 -159t76.5 -158.5t186.5 -65.5q31 0 92 16l85 -47l-23 77q108 82 108 178zM603 269
q-12 0 -21.5 9.5t-9.5 21.5t9.5 21.5t21.5 9.5q16 0 27 -9.5t11 -21.5t-11 -21.5t-27 -9.5zM773 269q-12 0 -21.5 9.5t-9.5 21.5t9.5 21.5t21.5 9.5q16 0 27 -9.5t11 -21.5t-11 -21.5t-27 -9.5z" />
    <glyph glyph-name="xiaoxi" unicode="&#xe635;" horiz-adv-x="1000" 
d="M817 86q60 34 94 82.5t34 103.5q0 57 -36 107t-98 83q11 -35 11 -71q0 -62 -32 -118t-92 -98q-116 -81 -275 -81q-14 0 -42 2q96 -61 226 -61q42 0 85 7q59 -41 133 -59q17 -4 41 -7q14 -2 17 13v0q2 8 -10 21q-2 2 -10.5 11t-12.5 14t-11 13.5t-12 17.5t-10 20zM423 628
q-92 0 -169.5 -31.5t-123 -86t-45.5 -119.5q0 -55 34.5 -104t93.5 -82q-5 -11 -10 -20.5t-12 -18t-11 -13t-12.5 -13.5t-10.5 -12q-11 -13 -10 -20q3 -14 16 -14h1q24 3 41 8q74 18 134 59q43 -7 84 -7q92 0 169.5 31.5t123 86.5t45.5 119.5t-45.5 119t-123 86t-169.5 31.5z
M423 213q-36 0 -73 7l-26 4l-21 -14q-13 -9 -30 -18l17 39l-46 26q-46 25 -71.5 60.5t-25.5 73.5q0 72 82 125t194 53t194 -53t82 -125t-82 -125t-194 -53z" />
    <glyph glyph-name="shouye" unicode="&#xe601;" 
d="M583 438q-30 28 -53 28q-26 0 -57 -28q-7 -8 -280 -254v-188q0 -13 9 -22t22 -9h173q7 0 11.5 4.5t4.5 11.5v134q0 7 4.5 11.5t10.5 4.5h195q7 0 11.5 -4.5t4.5 -11.5v-134q0 -7 4.5 -11.5t10.5 -4.5h177q13 0 22 9t9 22v187q-271 247 -279 255zM976 271.5
q-1 21.5 -20 38.5l-22 22q-17 17 -42 40.5t-55 52.5q-29 28 -61 58q-31 30 -62 59q-28 27 -54 52q-24 22 -42 40q-17 16 -22 20q-28 27 -67.5 26.5t-72.5 -33.5q-5 -4 -32 -29t-65 -61q-38 -35 -82 -75q-42 -38 -83 -76q-37 -34 -66 -61q-28 -25 -33 -30q-14 -14 -15 -36
t17 -38q16 -14 38 -13.5t36 11.5q4 3 26 23q23 21 52 48q31 28 66.5 60.5t67.5 62.5q31 29 57 53q24 22 33 30q27 24 55 25t56 -25q6 -5 30 -27q24 -23 55 -52q33 -31 68 -64q37 -34 68 -63q39 -36 55 -51q22 -21 27 -24q13 -12 35.5 -13t39.5 14q15 14 14 35.5z" />
    <glyph glyph-name="xiazai" unicode="&#xe61e;" 
d="M399 459q-2 2 -6 5.5t-17.5 10t-28 9.5t-35.5 0t-42 -15q-58 -36 -55 -108q0 -8 1 -8q-6 -1 -16 -4t-35.5 -16t-45 -31t-35.5 -52t-16 -76q1 -31 10.5 -55.5t23 -40t31.5 -27t33 -17t31 -8.5t22 -3.5t9 -0.5l313 1l-145 131l80 -1v159h103l1 -159l78 -1l-117 -130h264
q3 0 8 0.5t21 3.5t30.5 7.5t32.5 15.5t32.5 25.5t26 38t15.5 52.5q3 44 -11.5 79.5t-33.5 54t-44 32.5t-35.5 17t-16.5 4v0q0 3 0.5 8t-0.5 21t-3 32t-8 37.5t-15 40.5t-24 39.5t-34.5 36t-47.5 27t-62 15.5q-51 5 -94 -8.5t-68.5 -36t-43 -47.5t-24.5 -40.5t-7 -17.5z" />
    <glyph glyph-name="dui" unicode="&#xe62c;" 
d="M822 424q20 20 21 50t-19 50.5t-49.5 20t-50.5 -20.5l-319 -319l-109 108q-21 21 -50 21.5t-49.5 -20t-21 -48t19.5 -48.5l157 -158q21 -21 53.5 -20t53.5 21z" />
    <glyph glyph-name="mima" unicode="&#xe632;" 
d="M791 341l-459 1q0 11 -1.5 39.5t-1 47.5t3 44.5t11.5 46.5t24 38q27 30 65.5 51t78.5 21q62 0 109 -40.5t72 -103.5q7 -19 14.5 -27.5t21.5 -8.5q22 -1 32.5 12.5t8.5 30t-5 29.5q-70 180 -253 180q-63 0 -103 -15.5t-77 -56.5q-18 -20 -31.5 -45.5t-21 -51t-12 -53
t-5.5 -52t-2 -47.5t0 -39l-27 -1q-18 0 -31.5 -13t-13.5 -32v-378q0 -19 13.5 -32t31.5 -13h558q19 0 32.5 13t13.5 32v378q0 19 -13.5 32t-32.5 13v0zM766 -18q0 -15 -10.5 -25.5t-25.5 -10.5h-434q-15 0 -25.5 10.5t-10.5 25.5v252q0 15 10.5 25.5t25.5 10.5h434
q15 0 25.5 -10.5t10.5 -25.5v-252z" />
    <glyph glyph-name="menu" unicode="&#xe607;" 
d="M128 599h768q18 0 30.5 -12.5t12.5 -30.5t-12.5 -30.5t-30.5 -12.5h-768q-18 0 -30.5 12.5t-12.5 30.5t12.5 30.5t30.5 12.5zM128 87h768q18 0 30.5 -12.5t12.5 -30.5t-12.5 -30.5t-30.5 -12.5h-768q-18 0 -30.5 12.5t-12.5 30.5t12.5 30.5t30.5 12.5zM128 343h768
q18 0 30.5 -12.5t12.5 -30.5t-12.5 -30.5t-30.5 -12.5h-768q-18 0 -30.5 12.5t-12.5 30.5t12.5 30.5t30.5 12.5z" />
    <glyph glyph-name="pengyouquan" unicode="&#xe60f;" 
d="M708 419v319q-6 3 -18 8.5t-49 16t-75 15.5t-93 1t-107 -22zM738 231v494q8 -4 20.5 -11t47.5 -32t64.5 -55.5t60.5 -81t46 -107.5zM638 88l344 320q2 -4 5.5 -12t9.5 -37t5.5 -62.5t-13 -90t-37.5 -118.5h-314zM462 47h465q-2 -6 -7 -16.5t-25.5 -40t-47 -55t-74 -54.5
t-103.5 -47zM310 149v-300q5 -3 14.5 -8t41.5 -15.5t67.5 -15.5t91 -3t113.5 17zM41 133l236 209v-475q-6 2 -16 6.5t-39.5 24.5t-57 47t-62.5 77t-61 111zM35 166q-2 7 -5 19.5t-8.5 50.5t-5.5 74.5t10 86t31 91.5h324zM77 521q3 7 8.5 17.5t27.5 41t48.5 57t72 58
t97.5 51.5l221 -225h-475z" />
    <glyph glyph-name="search" unicode="&#xe608;" 
d="M950 -96l-270 272q81 96 81 222q0 95 -46.5 175t-127 126.5t-175 46.5t-174.5 -46.5t-126.5 -126.5t-46.5 -174.5t46.5 -174.5t126.5 -126.5t175 -46.5q130 0 228 85l270 -272q8 -8 19.5 -8t19.5 8.5t8 20t-8 19.5zM413 106q-121 0 -207 85.5t-86 207t86 207t207 85.5
t206.5 -85.5t85.5 -207t-85.5 -207t-206.5 -85.5z" />
    <glyph glyph-name="shanchu" unicode="&#xe645;" 
d="M694 580q17 -2 50.5 -1.5t45.5 -1.5q34 -6 50.5 -33t12.5 -69h-54q-1 -54 -1 -298q0 -16 1 -48.5t0.5 -56.5t-2.5 -44q-3 -31 -23.5 -50.5t-50.5 -25.5q-17 -2 -38.5 -2.5t-50.5 0.5t-41 1q-29 0 -82.5 -0.5t-97 -0.5t-81.5 1q-63 1 -92 39q-3 4 -5 8.5t-4 10.5t-3 10
t-2 12l-1.5 12t-0.5 13.5v13v15v14.5v376h-52q-6 38 8.5 65t43.5 36q12 4 30.5 4.5t35.5 -0.5t38 0q-3 49 6 74.5t42 29.5q9 1 21.5 1t29 -0.5t25.5 -0.5h152h16.5h18.5t14 -1t14.5 -3t10.5 -6q6 -5 9.5 -12.5t4.5 -18.5t1.5 -19.5t0 -22.5t0.5 -21zM380 629v-50h262v52
h-261q-1 0 -1 -2zM329 469v-318q0 -6 -0.5 -19.5t-0.5 -24t0.5 -22.5t3 -20t7.5 -11q5 -4 15 -4t16 4q5 3 7.5 11t3.5 20t1 22t-0.5 23.5t-0.5 19.5v322h-51q-1 -1 -1 -3zM485 469v-308q0 -3 -1.5 -30t-0.5 -44.5t6 -24.5q5 -8 18 -11t21 3q4 4 6.5 12.5t3 20.5t0.5 23
t-1 24t-1 18v320h-51q-1 -1 0 -3zM642 469v-323q0 -5 -0.5 -20.5t-0.5 -24t1 -20t5 -18.5t10 -9q7 -3 16.5 -2t13.5 4q5 4 7 17.5t2 26t-1 31t-1 23.5v318h-51q-1 -1 -1 -3z" />
    <glyph glyph-name="android" unicode="&#xe62e;" 
d="M770 491q-9 96 -82.5 162t-173.5 66t-173 -66t-83 -162h512zM375 599.5q0 9.5 7 16.5t16.5 7t16 -7t6.5 -16.5t-6.5 -16t-16 -6.5t-16.5 6.5t-7 16zM606 599.5q0 9.5 7 16.5t16.5 7t16 -7t6.5 -16.5t-6.5 -16t-16 -6.5t-16.5 6.5t-7 16zM405 695l-42 74q-4 8 -11.5 3.5
t-3.5 -11.5l42 -74q8 4 15 8zM623 695l42 74q4 8 11.5 3.5t2.5 -11.5l-41 -74q-9 4 -15 8zM238 185q0 -25 -17 -42.5t-40.5 -17.5t-40.5 17.5t-17 42.5v231q0 24 17 41.5t40.5 17.5t40.5 -17.5t17 -41.5v-231zM903 185q0 -25 -17 -42.5t-40.5 -17.5t-40.5 17.5t-17 42.5v231
q0 24 17 41.5t40.5 17.5t40.5 -17.5t17 -41.5v-231zM260 466v-370q0 -25 17.5 -42t42.5 -17h41v-126q0 -25 17 -42.5t40.5 -17.5t40.5 17.5t17 42.5v126h75v-126q0 -25 17 -42.5t40.5 -17.5t40.5 17.5t17 42.5v126h42q24 0 41.5 17t17.5 42v370h-507z" />
    <glyph glyph-name="tixing" unicode="&#xe610;" 
d="M890 32q-18 25 -41.5 60.5t-44 78.5t-35.5 91t-15 98q0 48 -13.5 87.5t-35.5 70t-52 51.5t-64 31q7 11 11 24.5t4 27.5q0 40 -27.5 68t-68 28t-68.5 -28t-28 -68q0 -28 16 -54q-31 -10 -60.5 -31t-51.5 -50.5t-36 -69t-14 -88.5q0 -52 -14.5 -99t-35 -89t-43 -78.5
t-39.5 -65.5q-11 -17 -4.5 -28.5t20.5 -11.5h721q5 0 11 3.5t10 9.5t4.5 14.5t-6.5 17.5zM536 625q-11 -11 -27 -12h-2q-16 0 -26.5 11.5t-10.5 27.5q0 17 10.5 27.5t27.5 10.5t28 -10.5t11 -27.5q0 -16 -11 -27zM512 -148q38 0 65.5 27.5t27.5 65.5h-186q0 -38 27.5 -65.5
t65.5 -27.5z" />
    <glyph glyph-name="shouji" unicode="&#xe602;" 
d="M703 751h-382q-43 0 -73.5 -30.5t-30.5 -73.5v-693q0 -43 30.5 -73.5t73.5 -30.5h382q43 0 73.5 30.5t30.5 73.5v693q0 43 -30.5 73.5t-73.5 30.5zM477 716h70q7 0 12 -5t5 -12t-5 -12t-12 -5h-70q-7 0 -12 5t-5 12t5 12t12 5zM512 -108q-18 0 -31 13t-13 31.5t13 31.5
t31 13t31 -13t13 -31.5t-13 -31.5t-31 -13zM737 40q0 -7 -5 -12t-12 -5h-416q-7 0 -12 5t-5 12v590q0 7 5 12t12 5h416q7 0 12 -5t5 -12v-590z" />
    <glyph glyph-name="shoucang1" unicode="&#xe611;" 
d="M508 743q-17 0 -27 -11q-10 -10 -15 -24l-103 -236l-275 -25q-10 -2 -17 -9q-9 -7 -10.5 -19t5.5 -25q8 -11 19 -21l10 -9l22 -19q22 -19 31 -26l36 -30q30 -26 94 -80l-30 -124q-6 -22 -12 -47q-7 -27 -11 -42q-4 -20 -8 -32l-4 -17q-2 -8 1.5 -15.5t11.5 -13.5
q7 -5 17 -6q2 -1 4 -1q7 0 14 4q5 2 17 9q11 5 31 17q10 6 40 23q27 16 44 25q46 26 115 66l232 -134l13 -5q8 -3 13 -3q13 0 24 6t8 23q-1 3 -4 17l-6 33q-5 22 -9 44q-4 20 -10 47q-15 72 -26 127l184 164q12 14 19 22q8 9 8 22t-7 19q-8 6 -25 11l-276 25l-99 237
q-2 3 -5 9q-4 6 -8 10q-4 6 -11 10t-15 4v0z" />
    <glyph glyph-name="101" unicode="&#xe603;" 
d="M690 242q62 44 98 111.5t36 145.5q0 129 -91.5 220.5t-221 91.5t-221 -91.5t-91.5 -220.5q0 -78 36 -145.5t98 -110.5q-139 -55 -225.5 -179t-86.5 -277v0h88v0v1q0 153 102 266.5t252 131.5q56 5 101 -1h3l1 -1q147 -21 245.5 -133.5t98.5 -262.5v-1v0h89v0
q0 153 -86 277t-225 178zM512 265q-97 0 -165.5 68.5t-68.5 165.5t68.5 165.5t165.5 68.5t165.5 -68.5t68.5 -165.5t-68.5 -165.5t-165.5 -68.5z" />
    <glyph glyph-name="unie61d" unicode="&#xe630;" 
d="M-57 853v0v0zM743 324q-16 4 -21 10.5t-2 11.5l3 6q2 1 3 3.5t4 9.5t5 14t3 17.5t-0.5 20t-6.5 20.5t-14 20q-16 15 -40.5 19.5t-49.5 0.5t-47 -10t-36 -11l-15 -7q-11 -3 -18 -4t-11 0.5t-6 3t-1.5 7.5t1 10.5t2.5 14t3 15.5q0 13 -1.5 24.5t-7 26t-16 23t-26.5 14
t-41.5 3.5t-57.5 -13q-38 -13 -78 -39t-69 -54.5t-53.5 -54.5t-37.5 -43l-12 -18q-36 -47 -54 -94.5t-17 -71.5v-23q7 -53 33 -95t62 -68t84.5 -44.5t93 -26.5t94.5 -11q81 -7 169 12.5t163.5 66.5t106.5 114q19 38 19.5 72.5t-12 56t-31.5 38t-36 24t-31 9.5v0zM407 -19
q-119 -5 -202.5 46.5t-83.5 131.5q0 78 83 135t203 62.5t203 -40t83 -123.5q0 -79 -84.5 -142.5t-201.5 -69.5v0zM375 287q-32 -3 -57.5 -15t-40 -26.5t-24.5 -32t-13.5 -34t-4.5 -30t-1 -21.5l1 -9v-4q0 -3 2 -13t6 -18.5t12.5 -18.5t21.5 -16q72 -36 135 -22t102 64
q15 18 20 46t-2 56t-24.5 51t-52.5 35.5t-80 7.5v0zM335 78q-7 -1 -13 -0.5t-11 2.5t-9.5 4t-8 6t-6.5 7.5t-4.5 9t-1.5 10.5q0 12 6.5 23.5t18 20t26.5 9.5q10 1 19.5 -0.5t16 -5.5t11.5 -9t7 -11.5t2 -14.5q0 -12 -7 -23t-19.5 -18.5t-26.5 -9.5v0zM429 158
q-8 -6 -16 -5.5t-12 7.5l-2 4q-1 3 -1 5v4q0 4 1 6l2 4q1 2 4 3l3 5q9 7 17 5.5t12 -8.5q3 -5 2.5 -10.5t-3.5 -10.5t-7 -9v0zM821 388q6 0 11.5 3.5t9 8.5t4.5 10q1 2 1 4q13 126 -88 143q-30 6 -55 1q-8 0 -13.5 -3.5t-9.5 -10t-4 -12.5q0 -11 8 -19t19 -8q86 20 92 -55
q2 -19 -2 -35q0 -11 8 -19t19 -8v0zM802 700q-49 11 -130 -5q-1 0 -3 -1l-1 -2l-1 -1q-12 -4 -19.5 -14.5t-7.5 -22.5q0 -16 11 -27t26 -11h3q2 0 5.5 1t8 1.5t9.5 2t9 3.5t15 2t27 -2t35 -8.5t38.5 -16.5t39 -27.5t33.5 -40.5q29 -65 11 -126q0 -1 -0.5 -2t-1.5 -5.5
t-2 -8.5l-2.5 -10t-1.5 -10q0 -10 5.5 -17t14 -9.5t19.5 -2.5q31 0 36 37q14 43 15.5 82.5t-5.5 69t-21.5 55.5t-33.5 44.5t-42 33t-44.5 23.5t-44.5 15v0z" />
    <glyph glyph-name="tuichu" unicode="&#xe604;" 
d="M889 320l-128 160q-10 12 -25 12q-5 0 -11 -2q-21 -7 -21 -30v-96h-256q-27 0 -45.5 -18.5t-18.5 -45.5t18.5 -45.5t45.5 -18.5h256v-96q0 -23 21 -30q6 -2 11 -2q15 0 25 12l128 160q16 20 0 40zM576 44h-192h-64v0v0q-27 0 -45.5 18.5t-18.5 45.5v64v256v64v0v0
q0 27 18.5 45.5t45.5 18.5h64h192q27 0 45.5 18.5t18.5 45.5t-18.5 45.5t-45.5 18.5h-320q-53 0 -90.5 -37.5t-37.5 -90.5v-512q0 -53 37.5 -90.5t90.5 -37.5h320q27 0 45.5 18.5t18.5 45.5t-18.5 45.5t-45.5 18.5z" />
    <glyph glyph-name="shanchu1" unicode="&#xe657;" 
d="M910 672h-76h-1.5h-2.5h-2.5h-1.5h-261v47q0 17 -12.5 29.5t-30.5 12.5q-3 0 -10 -1q-8 1 -11 1q-18 0 -30 -12.5t-12 -29.5v-47h-255q-5 1 -9.5 1t-9.5 -1h-75q-40 0 -40 -33q0 -17 11 -26.5t29 -9.5h48l1 -681q1 -34 24 -57t56 -23h42v-1l463 1v0h42q34 0 56.5 24
t22.5 60v678h45q18 0 30 9.5t12 26.5q0 32 -42 32zM794 -4q0 -42 -10 -59.5t-38 -22.5h-477q-18 4 -27 13.5t-12 29.5l-1 646l565 1v-690v82zM406 531q-15 0 -25 -10t-10 -25v-477q0 -14 10 -24.5t25 -10.5t25 10.5t10 24.5v477q0 15 -10 25t-25 10zM618 531q-15 0 -25 -10
t-10 -25v-477q0 -14 10 -24.5t25 -10.5t25 10.5t10 24.5v477q0 15 -10 25t-25 10z" />
    <glyph glyph-name="jubao" unicode="&#xe61b;" 
d="M905 595q-33 6 -70.5 19t-60.5 23t-65.5 30t-56.5 26q-10 5 -40.5 22.5t-55 25t-56.5 7.5q-24 -2 -48 -13q-33 -14 -97 -47.5t-120.5 -57t-115.5 -35.5q0 -94 12 -176t31.5 -145t50.5 -119.5t62 -96.5t75 -80t80 -66.5t84 -58.5q180 98 286 290.5t105 451.5v0zM513 -39
q-90 45 -160.5 136t-109 209.5t-36.5 242.5q56 10 119.5 38t111 50.5t74.5 22.5q33 0 82 -23.5t109 -51.5t113 -36q2 -98 -22 -192t-66.5 -169.5t-97.5 -134t-117 -92.5v0zM469 529v-261h87v261h-87v0zM469 158h87v65h-87v-65v0zM469 158z" />
    <glyph glyph-name="plus" unicode="&#xe621;" 
d="M191 365h640v-129h-640v129zM448 620h128v-640h-128v640z" />
    <glyph glyph-name="back" unicode="&#xe61a;" 
d="M768 620l-321 -320l321 -320l-64 -64l-386 384l386 384z" />
    <glyph glyph-name="cuti" unicode="&#xe637;" 
d="M266 604q-1 26 -5 40t-15.5 20t-22 7t-34.5 1h-12h-42q-7 0 -7 24v31v3v3t1.5 2t5.5 1h355q177 0 242 -34q105 -52 105 -170q0 -31 -4 -55t-15.5 -43.5t-23 -32.5t-34 -28t-40 -24t-49.5 -25l4 -2q221 -67 221 -249q0 -50 -30 -105.5t-75 -82.5q-80 -45 -261 -45h-380
q-22 0 -22 7v33q0 7 4.5 15.5t10.5 8.5h66q32 0 41 7t13 37q3 19 3.5 330.5t-0.5 325.5zM384 341q0 -3 76 -3q123 0 173 33q78 54 78 150q0 88 -67 132q-67 43 -187 43q-39 0 -45 -1q-9 -3 -15.5 -9t-6.5 -14q-6 -104 -6 -238v-93zM384 220v-173q0 -89 32 -128t115 -39
q45 0 83 10.5t70 33t50 62.5t18 94q0 73 -36 121t-99 71q-17 5 -33 9t-40 5.5t-32.5 2t-42 0t-35.5 -0.5h-50v-68z" />
    <glyph glyph-name="xieti" unicode="&#xe638;" 
d="M776 631v-58h-88l-220 -539h88v-59h-308v59h88l220 539h-88v58h308z" />
    <glyph glyph-name="shanchuxian" unicode="&#xe639;" 
d="M934 335h-298q-33 13 -76 26q-9 2 -25 7q-172 52 -172 131q0 49 35 79t94 30q79 0 131 -37t52 -91v-2h69v177h-71v-57q-42 36 -87.5 53.5t-97.5 17.5q-105 0 -168.5 -58.5t-63.5 -153.5q0 -72 42 -117l5 -5h-204v-71h332q7 -2 14 -5q25 -8 66 -21q153 -49 153 -125
q0 -58 -38 -91.5t-104 -33.5q-81 0 -139.5 45.5t-58.5 106.5v10h-69v-206h69v72q42 -44 93 -65t114 -21q112 0 179.5 61t67.5 161q0 68 -34 112h190v71z" />
    <glyph glyph-name="fenxiang" unicode="&#xe628;" 
d="M787 182q-51 0 -95 -24.5t-70 -66.5l-211 121q22 42 22 88q0 26 -9 56l219 126q59 -64 144 -64q81 0 138.5 57.5t57.5 138.5t-57.5 139t-138.5 58t-138.5 -58t-57.5 -139q0 -26 9 -56l-219 -125q-59 63 -144 63q-81 0 -138.5 -57.5t-57.5 -138.5t57.5 -138.5t138.5 -57.5
q65 0 119 40l-1 -1l238 -136q-2 -16 -2 -21q0 -82 57.5 -139.5t138.5 -57.5t138.5 58t57.5 139t-57.5 138.5t-138.5 57.5zM787 732q49 0 83.5 -34.5t34.5 -83.5t-34.5 -83.5t-83.5 -34.5t-83.5 34.5t-34.5 83.5t34.5 83.5t83.5 34.5zM237 182q-49 0 -83.5 34.5t-34.5 83.5
t34.5 83.5t83.5 34.5t83.5 -34.5t34.5 -83.5t-34.5 -83.5t-83.5 -34.5zM787 -132q-49 0 -83.5 34.5t-34.5 83.5t34.5 83.5t83.5 34.5t83.5 -34.5t34.5 -83.5t-34.5 -83.5t-83.5 -34.5z" />
    <glyph glyph-name="iconfontemoji" unicode="&#xe649;" 
d="M511 -148q-91 0 -174 35.5t-143 95.5t-95.5 143t-35.5 174t35.5 174t95.5 143t143 95.5t174 35.5t174 -35.5t143 -95.5t95.5 -143t35.5 -174t-35.5 -174t-95.5 -143t-143 -95.5t-174 -35.5zM511 684q-104 0 -192.5 -51.5t-140 -140t-51.5 -192.5t51.5 -192.5t140 -140
t192.5 -51.5t192.5 51.5t140 140t51.5 192.5t-51.5 192.5t-140 140t-192.5 51.5zM512 39q-67 0 -126.5 29t-100.5 81q-8 11 -6.5 24t12 21t23.5 6.5t21 -11.5q33 -41 79 -63.5t98 -22.5q53 0 99.5 22.5t78.5 64.5q8 11 21 12.5t23.5 -6.5t12.5 -21t-7 -24
q-41 -53 -100.5 -82.5t-127.5 -29.5zM368 297q-20 0 -34 14t-14 34v64q0 20 14 34t34 14t34 -14t14 -34v-64q0 -20 -14 -34t-34 -14zM656 297q-20 0 -34 14t-14 34v64q0 20 14 34t34 14t34 -14t14 -34v-64q0 -20 -14 -34t-34 -14z" />
    <glyph glyph-name="zhuce" unicode="&#xe60b;" 
d="M753 197q17 0 29 12t12 29q0 20 -16 33h1q-49 38 -105 59q37 32 58 77t21 95q0 94 -66.5 160.5t-160.5 66.5t-160 -66.5t-66 -160.5q0 -50 21 -95t58 -77q-118 -45 -191.5 -149.5t-73.5 -234.5v0q0 -17 12 -29t29 -12t29.5 12t12.5 29q0 89 44 165t120 120t165 44
q110 0 198 -67q12 -11 29 -11zM526.5 358q-59.5 0 -102 42.5t-42.5 102t42.5 101.5t102 42t101.5 -42t42 -101.5t-42 -102t-101.5 -42.5zM910 59h-62v62q0 13 -9 22t-22 9t-22 -9t-9 -22v-62h-61q-13 0 -22 -9t-9 -22t9 -22t22 -9h61v-61q0 -13 9 -22t22 -9t22 9t9 22v61h62
q13 0 22 9t9 22t-9 22t-22 9z" />
    <glyph glyph-name="top" unicode="&#xe654;" 
d="M511.5 741q-94.5 0 -181 -37t-148.5 -99.5t-99 -148.5t-37 -181t37 -181t99 -148.5t148.5 -99.5t181 -37t181 37t149 99.5t99 148.5t36.5 181t-36.5 181t-99 148.5t-149 99.5t-181 37zM511.5 -132q-110.5 0 -204.5 54.5t-148.5 148t-54.5 204.5t54.5 205t148.5 148.5
t204.5 54.5t204.5 -54.5t148.5 -148.5t54.5 -205t-54.5 -204.5t-148.5 -148t-204.5 -54.5zM537 465q-10 11 -25 8q-16 3 -26 -8l-165 -164q-8 -9 -8 -21t8.5 -20.5t20.5 -8.5t21 9l119 119v-308q0 -12 9 -20.5t21 -8.5t20.5 8.5t8.5 20.5v308l120 -119q8 -9 20 -9t20.5 8.5
t8.5 20.5t-8 21z" />
    <glyph glyph-name="android1" unicode="&#xe631;" 
d="M827 181q0 -26 18.5 -45t44.5 -19t44.5 19t18.5 45v247q0 26 -18.5 44.5t-44.5 18.5t-44.5 -18.5t-18.5 -44.5v-247v0zM603 637q0 12 9 21t21 9q13 0 22.5 -9t9.5 -21q0 -13 -9.5 -22t-22.5 -9q-12 0 -21 9t-9 22v0zM364 637q0 12 9 21t21 9q13 0 22 -9t9 -21
q0 -13 -9 -22t-22 -9q-12 0 -21 9t-9 22v0zM234 38q0 -21 14.5 -35t35.5 -14h55v-138q0 -26 18.5 -44.5t44.5 -18.5t44.5 19t18.5 44v138h97v-138q0 -26 18 -44.5t45 -18.5q26 0 44 19t18 44v138h56q21 0 35 14t14 35v451h-558v-451v0zM791 529q-6 63 -45.5 114t-101.5 80
l52 74q6 9 -2 13q-6 4 -12 -3l-54 -77q-60 22 -116 22q-58 0 -116 -22l-53 77q-7 8 -13 3q-7 -5 -2 -13l52 -74q-63 -30 -102 -80.5t-45 -113.5h558v0zM71 181q0 -26 18 -45t45 -19q26 0 44.5 19t18.5 45v247q0 26 -18.5 44.5t-44.5 18.5q-27 0 -45 -18.5t-18 -44.5v-247v0z
" />
    <glyph glyph-name="gantanhao" unicode="&#xe614;" 
d="M508.5 676q-104.5 0 -193 -51.5t-140 -140t-51.5 -193t51.5 -193t140 -140t193 -51.5t193.5 51.5t140.5 140t51.5 193t-51.5 193t-140.5 140t-193.5 51.5zM569 150q-25 -38 -49.5 -57.5t-58.5 -19.5q-25 4 -35.5 19.5t-5.5 34.5l64 212q3 9 -5 12t-22 -13l-39 -46v25
q22 33 53.5 55.5t55.5 22.5q22 -2 33 -17.5t7 -36.5l-64 -213q-2 -9 6 -11q8 -3 22 13l39 46q1 -2 0 -14zM560.5 426q-18.5 0 -31.5 12.5t-13 32t13 31.5t31.5 12t31.5 -12t13 -31.5t-13 -32t-31.5 -12.5z" />
    <glyph glyph-name="jinlingyingcaiicon10" unicode="&#xe605;" 
d="M886 635q-82 82 -198.5 82t-198.5 -82l-196 -196q-9 -9 -9 -22.5t9.5 -23t23 -9.5t22.5 9l196 196q63 63 152.5 63t152.5 -63t63 -152.5t-63 -152.5l-328 -328l-328 328q-63 63 -63 152.5t63 152.5t152 63q15 0 31 -2h4q13 0 22 8t11 19q1 14 -7 24.5t-21 12.5
q-19 3 -40 3q-44 0 -86 -14q-64 -20 -112 -68q-82 -82 -82 -198.5t82 -198.5l351 -351q10 -9 23 -9t23 9l351 351q82 82 82 198.5t-82 198.5z" />
    <glyph glyph-name="3qiuyouquan" unicode="&#xe646;" 
d="M507 -147q-91 0 -173.5 35.5t-142.5 95t-95.5 142.5t-35.5 174q0 138 78 252q13 -15 30 -22q-70 -104 -70 -230q0 -111 54.5 -205.5t149 -149.5t206 -55t206 55t149 149.5t54.5 205.5t-54.5 205.5t-149 149.5t-206.5 55q-126 0 -229 -71q-8 18 -22 31q114 77 251 77
q91 0 174 -35.5t143 -95t95.5 -142.5t35.5 -174t-35.5 -174t-95.5 -142.5t-143 -95t-174 -35.5zM470 290.5q0 19.5 13.5 33t33 13.5t33 -13.5t13.5 -33t-13.5 -33t-33 -13.5t-33 13.5t-13.5 33zM753 359.5q-14 6.5 -19.5 21t1 28.5t21 19t28.5 -1t19 -20.5t-1 -28.5
t-20.5 -19.5t-28.5 1zM637 553q81 -37 127 -113q-19 -6 -33 -18q-40 65 -110 98q-66 27 -130 21.5t-119.5 -44.5t-83.5 -101q-44 -95 -7.5 -193t131.5 -141q65 -28 129 -22t120 45t84 101q32 70 19 146q20 0 37 7q15 -88 -22 -168q-24 -54 -67 -93t-94.5 -58t-109.5 -17.5
t-111.5 26t-92.5 67.5t-58 94t-17.5 109t26 111.5t67.5 93t94 58.5t109.5 17.5t111.5 -26.5zM200 561q-19 0 -33 13.5t-14 33t14 33t33 13.5t33 -13.5t14 -33t-14 -33t-33 -13.5z" />
    <glyph glyph-name="biaoqian" unicode="&#xe627;" 
d="M933 322q-59 59 -508 509l-1 1h-360v-360l510 -509q2 -3 6.5 -6.5t18 -10.5t27 -9.5t32.5 3.5t36 23l239 239v0q28 28 27 65q-1 30 -27 55zM304 592q-25 -25 -60 -25t-60 25t-25 60t25 60t60 25t60 -25t25 -60t-25 -60v0z" />
    <glyph glyph-name="zhuanfa" unicode="&#xe653;" 
d="M834 -105h-644q-52 0 -88.5 36.5t-36.5 88.5v269h48v-269q0 -32 22.5 -54.5t54.5 -22.5h644q32 0 54.5 22.5t22.5 54.5v269h48v-269q0 -52 -36.5 -88.5t-88.5 -36.5zM688 491q-15 -14 -28.5 -10t-18.5 24l-39 165q-5 19 5.5 29t29.5 4l164 -48q19 -6 22 -19.5t-11 -27.5z
M413 78l-49 1q3 191 77.5 325.5t215.5 201.5l21 -44q-260 -124 -265 -484z" />
    <glyph glyph-name="right" unicode="&#xe61c;" 
d="M813 364l-314 -182l-314 -181v363v362l314 -181z" />
    <glyph glyph-name="triSW" unicode="&#xe618;" 
d="M928 608h-800q-13 0 -22.5 -9.5t-9.5 -22.5v-32q0 -13 9.5 -22.5t22.5 -9.5h800q13 0 22.5 9.5t9.5 22.5v32q0 13 -9.5 22.5t-22.5 9.5zM928 320h-800q-13 0 -22.5 -9.5t-9.5 -22.5v-32q0 -13 9.5 -22.5t22.5 -9.5h800q13 0 22.5 9.5t9.5 22.5v32q0 13 -9.5 22.5
t-22.5 9.5zM928 32h-800q-13 0 -22.5 -9.5t-9.5 -22.5v-32q0 -13 9.5 -22.5t22.5 -9.5h800q13 0 22.5 9.5t9.5 22.5v32q0 13 -9.5 22.5t-22.5 9.5z" />
    <glyph glyph-name="shipin" unicode="&#xe63a;" 
d="M898 587h-772q-25 0 -43.5 -18t-18.5 -44v-450q0 -26 18.5 -44t43.5 -18h772q25 0 43.5 18t18.5 44v450q0 26 -18.5 44t-43.5 18zM367 538h114v-31h-114v31zM592 308q5 -3 5 -8t-5 -8l-151 -87q-2 -1 -4.5 -1t-4.5 1q-5 3 -5 8v174q0 5 5 8t9 0zM305 56h-114v31h114v-31z
M305 507h-114v31h114v-31zM481 56h-114v31h114v-31zM657 56h-114v31h114v-31zM657 507h-114v31h114v-31zM833 56h-114v31h114v-31zM833 507h-114v31h114v-31zM743 -148z" />
    <glyph glyph-name="fenxiang1" unicode="&#xe629;" 
d="M478 563h-363v-659h709v313h49v-363h-807v758h412v-49zM592 698l18 46l346 -132l-28 -42zM914 628l42 -16l-198 -296l-41 27l191 287zM928 570l28 42v0l-28 -42v0v0zM956 612l-42 16l42 -16v0v0v0zM395 15l-49 4q1 9 2.5 23.5t10 56.5t20 82.5t34.5 95t51 100.5
t71.5 92.5t95 78t123 50t152.5 14.5l-2 -49q-73 3 -137 -13t-110.5 -45t-86 -70.5t-65.5 -83.5t-46.5 -91.5t-31.5 -87.5t-19 -77t-10 -54.5t-3 -25.5v0v0z" />
    <glyph glyph-name="zhuanji" unicode="&#xe60e;" 
d="M262 628v-39l-41 -1q-2 0 -5.5 -0.5t-13 -3.5t-16.5 -8t-13 -16t-6 -26v-584q0 -3 0.5 -6.5t3.5 -13t8 -16.5t15.5 -13t24.5 -6l453 -1h5t11.5 2t15 6t12 13.5t5.5 21.5l1 12l41 1l-1 -14q0 -3 -0.5 -8.5t-6 -20t-14.5 -25.5t-28.5 -20t-45.5 -9l-448 1q-4 -1 -10.5 -0.5
t-22.5 4.5t-28.5 13t-23 29.5t-10.5 49.5l2 559v25v10t4.5 22.5t13.5 29t29 23t48 10.5zM261 78v547v13.5t5.5 30t16.5 38t35.5 30t58.5 13.5h332l190 -217v-465q1 -5 0.5 -13t-6 -28.5t-16 -36.5t-35 -28.5t-58.5 -12.5h-409q0 -1 -12 -0.5t-28.5 6t-33.5 17.5t-28.5 39.5
t-11.5 66.5zM384 -10h391q25 0 42.5 9t25 21.5t11.5 25.5t4 21v9v435l-174 198h-298q-24 0 -41.5 -9t-25.5 -21t-12 -24t-4 -21l-1 -9v-539q0 -29 8.5 -49t20.5 -29t24 -13.5t21 -4.5h8zM709 153h-258q-16 0 -23.5 10t-1 20t24.5 10h258q17 0 24 -10t0 -20t-24 -10v0z
M709 302h-258q-16 0 -23.5 10t-1 20.5t24.5 10.5h258q17 0 24 -10.5t0 -20.5t-24 -10v0zM668 710v-136q0 -4 0.5 -10.5t5.5 -23t14 -29t28.5 -23t46.5 -10.5h103l1 41h-104h-5.5t-13 3t-16.5 8.5t-13 18.5t-6 30v130l-41 1v0z" />
    <glyph glyph-name="shezhi1" unicode="&#xe634;" horiz-adv-x="1298" 
d="M672 344l85 85l-116 116l-85 -85q-31 17 -64 27v120h-164v-120q-33 -10 -63 -26l-92 91l-118 -118l91 -91q-16 -31 -25 -63h-121v-164h121q9 -34 26 -65l-85 -85l116 -116l85 85q31 -17 65 -26v-121h164v121q32 9 63 25l91 -91l118 118l-91 92q16 30 26 63h120v164h-120
q-10 33 -27 64zM409.5 61q-56.5 0 -96.5 40t-40 96.5t40 96.5t96.5 40t96.5 -40t40 -96.5t-40 -96.5t-96.5 -40zM1297 484v110h-80q-7 22 -18 43l57 56l-78 78l-56 -57q-21 11 -43 18v80h-110v-80q-22 -7 -42 -18l-61 61l-78 -79l61 -60q-12 -21 -18 -42h-80v-110h80
q7 -22 18 -43l-57 -57l78 -77l56 57q21 -11 43 -18v-80h110v80q22 6 42 17l60 -60l79 78l-61 61q12 20 18 42h80zM1024 448q-38 0 -64.5 26.5t-26.5 64.5t26.5 64.5t64.5 26.5t64.5 -26.5t26.5 -64.5t-26.5 -64.5t-64.5 -26.5z" />
    <glyph glyph-name="iconziti" unicode="&#xe612;" 
d="M654 87l-367 -1l-71 -169h159v-57h-311v57h55l377 822h33l387 -822h45v-57h-281v57h61l-87 170v0zM339 197h258l-117 238h-23l-118 -238v0zM339 197z" />
    <glyph glyph-name="qian" unicode="&#xe61f;" 
d="M761 637h-93l-105 -193q-42 -79 -52 -105h-2q-27 63 -156 298h-99l184 -316h-151v-69h177v-97h-177v-70h177v-140h87v140h171v70h-171v97h171v69h-146z" />
    <glyph glyph-name="biji" unicode="&#xe625;" 
d="M531 238q30 45 66 98t87.5 122t74.5 89q-36 -87 -139 -248.5t-135 -226.5q30 -10 57.5 -14t48 -4t44 7.5t37 13t35.5 21.5t32.5 24.5t34.5 28.5l-79 15q19 6 41 12.5t29.5 9.5t17 6.5t14.5 9t10.5 11.5t15.5 20q47 65 59 144l-65 -8q5 3 25 13.5t33 18.5t16 13
q14 23 43 185.5t29 212.5q-57 -1 -129.5 -45.5t-140 -115.5t-126.5 -152.5t-98 -163t-45 -139.5q-11 -91 -85 -247l-7 -17q3 3 27 40q81 128 172 266zM827 126q95 -56 95 -132q0 -101 -144.5 -158.5t-345.5 -45.5t-303 87q-68 49 -68 117q0 36 21.5 67.5t53.5 52.5t74 38
t77.5 26t70.5 14q-3 -23 -15 -52q-31 -6 -66.5 -16.5t-75.5 -28t-65.5 -44.5t-25.5 -57q0 -33 26 -61t70 -46.5t101.5 -31t120.5 -15t126.5 0t120.5 15t101.5 31t70.5 46.5t26 61q0 54 -87 99q17 12 41 33z" />
    <glyph glyph-name="meiriyicai" unicode="&#xe647;" 
d="M224 -212q-32 0 -56 21t-24 64v353h-74q-21 0 -40 24t-19 56v9l472 489q8 8 23 8q17 0 25 -8q1 -1 107 -109t230.5 -234.5t137.5 -140.5l7 -7v-9q0 -32 -11 -50q-15 -26 -46 -26h-72l-1 -358v-3q-4 -18 -18 -38q-27 -41 -72 -41h-175v23q1 318 0 336q0 5 -3.5 12t-7.5 7
h-189q-4 0 -8.5 -5.5t-4.5 -12.5v-360h-175h-6zM73 272h117v-399q0 -39 34 -39h2h2h1h130v314q0 26 17.5 45t41.5 19h189q28 0 45 -26q12 -18 12 -37q1 -22 0 -315h128q32 0 45 42l1 398h117q5 0 7 3q4 6 4 18q-30 31 -235 239.5t-224 228.5l-450 -465q3 -18 16 -26v0z" />
    <glyph glyph-name="collect" unicode="&#xe62a;" 
d="M128 -160v896h768v-896l-384 167zM512 39l356 -156v824h-712v-824zM677 109l-165 78l-165 -78l23 182l-124 133l178 35l88 159l88 -160l178 -34l-124 -134zM512 218l130 -61l-18 143l98 106l-140 27l-70 127l-69 -127l-141 -27l98 -106l-18 -143z" />
    <glyph glyph-name="tupian" unicode="&#xe63b;" 
d="M958 18q0 -31 -22 -52.5t-52 -21.5h-744q-31 0 -52.5 22t-21.5 52v564q0 31 22 52.5t52 21.5h743q31 0 52.5 -21.5t21.5 -52.5v-564h1zM140 598q-6 0 -10.5 -4.5t-4.5 -10.5v-565q0 -6 4.5 -10.5t10.5 -4.5h743q6 0 10.5 4.5t4.5 10.5v564q0 6 -4.5 10.5t-10.5 4.5h-743
v1zM274 359q-37 0 -63 26t-26 63t26 63.5t63 26.5t63 -26t26 -63t-26 -63.5t-63 -26.5v0zM839 62h-654v90l149 149l74 -74l238 237l193 -194v-208h-1v0h1z" />
    <glyph glyph-name="xingzhuang13" unicode="&#xe659;" 
d="M705 453h-413v249h82q11 44 46.5 77t79.5 33t78 -32.5t45 -77.5h82v-250v1v0v0zM650 508v140h-83v34q0 30 -19.5 52.5t-47.5 22.5t-50 -23t-22 -52v-34h-84l1 -140v0h305zM793 -212h-562q-67 0 -114.5 48t-47.5 115v565q0 67 47.5 113t114.5 46h114v-167h306l-1 167h143
q67 0 114.5 -46t47.5 -113v-565q0 -67 -47.5 -115t-114.5 -48v0v0zM231 619q-43 0 -76 -30.5t-33 -72.5v-565q0 -42 33.5 -74.5t75.5 -32.5h562q42 0 73.5 32t31.5 75v565q0 42 -31 72.5t-74 30.5h-88v-166h-413v166h-61v0v0zM495 -13q-10 0 -18 7l-165 133q-10 8 -11.5 20
t6.5 22t20 11.5t22 -6.5l139 -112l214 337q6 11 18 13.5t22.5 -4t13.5 -18.5t-4 -23l-231 -366q-8 -11 -21 -13q-2 -1 -5 -1v0v0z" />
    <glyph glyph-name="shanchu11" unicode="&#xe65a;" 
d="M344.5 21q11.5 0 19.5 8t8 20v306q0 12 -8 20t-19.5 8t-19.5 -8t-8 -20v-306q0 -12 8 -20t19.5 -8zM511.5 21q11.5 0 20 8t8.5 20v306q0 12 -8.5 20t-20 8t-19.5 -8t-8 -20v-306q0 -12 8 -20t19.5 -8zM679.5 21q11.5 0 19.5 8t8 20v306q0 12 -8 20t-19.5 8t-20 -8
t-8.5 -20v-306q0 -12 8.5 -20t20 -8zM819 662h-116q-9 37 -39 60.5t-68 23.5h-168q-38 0 -68 -23.5t-39 -60.5h-116q-46 0 -79 -32.5t-33 -78.5v-28h28v-28h56v-530q0 -46 32.5 -79t79.5 -33h446q46 0 79 33t33 79v530h55v28h28v28q0 46 -32.5 78.5t-78.5 32.5zM428 690h168
q31 0 48 -28h-264q16 28 48 28zM791 -35q0 -23 -16.5 -39.5t-39.5 -16.5h-446q-24 0 -42 16.5t-18 39.5l4 530h558v-530zM149 551q0 23 16.5 39.5t39.5 16.5h614q23 0 39.5 -16.5t16.5 -39.5h-726z" />
    <glyph glyph-name="down" unicode="&#xe609;" 
d="M512 32l448 512h-896z" />
    <glyph glyph-name="delete" unicode="&#xe61d;" 
d="M829 707l91 -91l-724 -724l-91 91zM196 707l724 -724l-91 -91l-724 724z" />
    <glyph glyph-name="share" unicode="&#xe623;" 
d="M704 56h-499v360h115q28 39 85 76h-239q-16 0 -27 -11t-11 -27v-436q0 -16 11.5 -27t26.5 -11h576q16 0 27.5 11t11.5 27v218l-77 -63v-117zM640 364v-128l256 191l-256 193v-119q-63 0 -115 -18.5t-84 -46.5t-56.5 -65t-36 -69.5t-18.5 -65t-8.5 -46t-1.5 -18.5
q68 111 132.5 151.5t187.5 40.5z" />
    <glyph glyph-name="wenzhang" unicode="&#xe636;" 
d="M755 493q-49 0 -84 34.5t-35 84.5v137h-429q-30 0 -51 -21t-21 -52v-753q0 -30 21 -51t51 -21h610q30 0 51 21t21 51v570h-134zM770 12h-516v49h516v-49zM770 168h-516v49h516v-49zM770 324h-516v48h516v-48zM683 749v-137q0 -30 21 -51.5t51 -21.5h134z" />
    <glyph glyph-name="edit" unicode="&#xe60c;" 
d="M937 566l-147 147q-12 12 -29 12t-29 -12l-578 -578q-4 -4 -5 -10l-73 -242q-4 -14 6.5 -24.5t24.5 -6.5l242 73q5 1 10 5v0v1l20 19l558 558q12 12 12 29t-12 29v0zM136 -88l55 185l130 -130l-185 -55v0zM361 2l-135 135l450 451l135 -136l-450 -450v0zM846 487
l-135 135l50 51l135 -136z" />
    <glyph glyph-name="faxian" unicode="&#xe65b;" 
d="M874 662q-98 98 -230 133t-264 0t-230 -133q-74 -74 -112 -169.5t-38 -192.5t38 -192.5t112 -169.5q98 -98 230 -133t264 0t230 133q74 74 112 169.5t38 192.5t-38 192.5t-112 169.5zM185 -27q-67 66 -101.5 152.5t-34.5 174.5t34.5 174.5t101 153t153 101t174.5 34.5
t174.5 -34.5t152.5 -101.5q89 -89 120.5 -208t0 -238t-120.5 -208t-208 -121t-238 0t-208 121zM437 379l-187 -345l339 193l194 339zM517 266q-14 0 -24 10t-10 24t10 24t24 10t23.5 -10t9.5 -24t-9.5 -24t-23.5 -10z" />
    <glyph glyph-name="filemanagement" unicode="&#xe64e;" 
d="M320 -166h-136q-70 0 -120 53t-50 128v590q0 75 50 128t120 53h612q71 0 120.5 -53t49.5 -128v-57q0 -14 -9.5 -24t-24 -10t-24.5 10t-10 24v57q0 47 -29.5 80t-72.5 33h-612q-42 0 -72 -33t-30 -80v-590q0 -47 30 -80t72 -33h136q14 0 24 -10t10 -24t-10 -24t-24 -10v0z
M456 446h-272q-14 0 -24 10t-10 24t10 24t24 10h272q14 0 24 -10t10 -24t-10 -24t-24 -10v0zM388 242h-204q-14 0 -24 10t-10 24t10 24t24 10h204q14 0 24 -10t10 -24t-10 -24t-24 -10v0zM711 174q-84 0 -144 60t-60 144.5t60 144t144.5 59.5t144.5 -59.5t60 -144
t-60 -144.5t-145 -60v0zM711 514q-56 0 -96 -39.5t-40 -96t40 -96.5t96.5 -40t96.5 40t40 96t-40 96t-97 40v0zM984 -98q-14 0 -24 10t-10 24q0 35 -19.5 76.5t-50.5 77.5t-76.5 60t-92.5 24t-92 -24t-76.5 -60t-50.5 -77.5t-19 -76.5q0 -14 -10 -24t-24 -10t-24 10t-10 24
q0 51 25 105.5t66 99t98.5 73t117 28.5t117 -28.5t98.5 -73t66 -99t25 -105.5q0 -14 -10 -24t-24 -10v0zM984 -98z" />
    <glyph glyph-name="flag" unicode="&#xe64c;" 
d="M278 158q4 4 13 10t40 16t66 10q40 0 85.5 -17t88.5 -33.5t76 -16.5q90 0 147 58q16 15 16 38v324q0 13 -8 21.5t-20 8.5t-27 -15q-36 -36 -124 -36q-30 0 -66.5 17t-77 33.5t-80.5 16.5t-72.5 -7.5t-44.5 -14.5l-12 -8v23q0 14 -10 23.5t-23.5 9.5t-23.5 -9.5t-10 -23.5
v-572q0 -14 10 -23.5t23.5 -9.5t23.5 9.5t10 23.5v144zM331 486v-212q0 -11 -8 -19t-19 -8t-18.5 8t-7.5 19v212q0 11 7.5 19t18.5 8t19 -8t8 -19z" />
    <glyph glyph-name="back1" unicode="&#xe652;" 
d="M622 476l-221 -220v0l-44 44v0l220 221h1l44 -44v-1zM401 344l221 -220v-1l-44 -44h-1l-220 221v0l44 44v0zM512 706q-110 0 -203.5 -54.5t-148 -148t-54.5 -203.5t54.5 -203.5t148 -148t203.5 -54.5t203.5 54.5t148 148t54.5 203.5t-54.5 203.5t-148 148t-203.5 54.5z
M512 -44q-93 0 -172.5 46t-125.5 125.5t-46 172.5t46 172.5t125.5 125.5t172.5 46t172.5 -46t125.5 -125.5t46 -172.5t-46 -172.5t-125.5 -125.5t-172.5 -46z" />
    <glyph glyph-name="baocun" unicode="&#xe642;" 
d="M256 -84h512v256h-512v-256v0zM832 -84h63v512q0 27 -31 83.5t-62.5 102t-31.5 44.5q-9 13 -23.5 19.5t-42.5 6.5v-256q0 -22 -17 -39q-9 -9 -24 -17t-23 -8h-392q-22 0 -39 17t-17 40v263h-64v-768h64v264q0 22 17 39t39 17h527q23 0 40 -17t17 -39v-264v0v0zM640 454
v198q0 23 -17 23h-147q-11 0 -14 -4.5t-3 -18.5v-198q0 -17 17 -17h147q10 0 13.5 3.5t3.5 13.5v0zM966 449v-547q0 -22 -17 -39t-39 -17h-790q-22 0 -39 17t-17 39v790q0 22 17 39t39 17h611q39 0 59 -8.5t37 -30.5q1 0 35 -52.5t69 -117.5t35 -90v0v0zM966 449z" />
    <glyph glyph-name="appfasongduanxin" unicode="&#xe7fa;" 
d="M950 690l-610 -610q-9 -9 -22 -9t-22 9t-9 22t9 22l610 610q9 9 22 9t22 -9t9 -22t-9 -22v0v0zM125 619v-638q0 -28 19.5 -47.5t47.5 -19.5h638q28 0 47.5 19.5t19.5 47.5v443h62v-494q0 -32 -23 -55t-55 -23h-741q-31 0 -54 23t-23 55v741q0 32 23 54.5t54 22.5h525v-62
h-473q-28 0 -47.5 -19.5t-19.5 -47.5v0v0zM125 619z" />
    <glyph glyph-name="top1" unicode="&#xe655;" horiz-adv-x="1080" 
d="M347 896h30q-1 -10 0.5 -13.5t7.5 -8.5q121 -96 161 -252q-33 0 -183 -0.5t-182 1.5q40 144 138 232q2 2 9.5 7.5t12.5 10t6 7.5q1 2 0.5 6t-1 6.5t0.5 3.5v0zM174 593h380q17 -86 15 -138q-2 -51 -20 -133q-23 -106 -63 -243h-242q-32 93 -65 241q-36 164 -6 270
q0 3 1 3v0zM290 478q-12 -39 11 -70.5t63 -31.5q35 1 57 26q17 18 19 42t-7 44t-30 33t-47 10q-51 -5 -66 -53v0zM0 295v30q11 106 124 139q15 -167 69 -323q-18 -26 -26.5 -39t-17.5 -40.5t-8 -55.5q-129 103 -141 289v0zM604 464q76 -23 105 -76q30 -54 11 -155
q-12 -68 -50 -131q-39 -66 -83 -95q2 55 -35 110q-2 3 -6.5 8t-7.5 9t-3 7q-1 3 1.5 9.5t6 15t4.5 11.5q44 143 57 285v2v0zM277 50h173q-5 -10 -17 -29.5t-17 -30.5q-6 3 -14 12t-12 12q-5 -15 -14 -42.5t-13 -40.5q-7 16 -18.5 46.5t-13.5 36.5q-5 -8 -12.5 -23l-9.5 -19
q-8 18 -32 78v0zM277 50z" />
    <glyph glyph-name="jian" unicode="&#xe648;" 
d="M180 470h680v-136h-680v136z" />
    <glyph glyph-name="weibiaoti104" unicode="&#xe643;" horiz-adv-x="1051" 
d="M240 896h-53v-52v-310q0 -9 8.5 -17.5t18 -8.5t18 8.5t8.5 17.5v310h758v-758h-353q-10 0 -18 -8.5t-8 -18t8 -18t18 -8.5h353h52v53v758v52v0h-810v0zM240 896zM240 125q-7 -7 -7 -18.5t7 -20.5q6 -7 17.5 -7t21.5 7l566 566v-144q0 -10 8.5 -18t18 -8t18 8t8.5 18v188
v52h-57h-174q-10 0 -18 -8t-8 -18q0 -13 7.5 -19.5t18.5 -6.5h139h-4l-562 -571v0zM240 125zM0 735v-53v-758v-52h52h758h53v52v53h-53v-53h-758v758h74v53h-74h-52zM52 735z" />
    <glyph glyph-name="iconfontchongzuo" unicode="&#xe63c;" 
d="M725 896q13 1 27 -5t22 -17l154 -216q21 -26 9.5 -53t-47.5 -32l-257 -23h-1q-31 -4 -50.5 19.5t-7.5 52.5l31 70q-69 15 -139 5q-75 -11 -141.5 -48t-113.5 -97q-64 -80 -77 -177t25.5 -186t120.5 -148q62 -44 135 -61t147 -7q74 11 141 48t114 97q45 57 65 126
q-6 28 20 60q12 17 34 20q20 3 37 -9t21 -28.5t-1 -27.5l-5 -10q-23 -104 -90 -188q-60 -77 -144.5 -124t-179.5 -60q-93 -13 -185.5 8.5t-170.5 76.5q-104 75 -153 188t-32.5 236t97.5 224q60 76 144.5 123t178.5 60q98 14 192 -9l33 76q10 23 39 34q3 1 8 2v0z" />
    <glyph glyph-name="15" unicode="&#xe613;" 
d="M967 501v-9v-374q0 -27 -15.5 -42.5t-42.5 -15.5h-744q-22 0 -37 12t-19 33v10v378v7l7 -4q325 -207 383 -245q39 -25 78 0q25 17 208 134q78 50 175 111q0 1 7 5zM538 633h374q22 0 37 -12.5t18 -33.5q1 -7 -5 -11q-207 -130 -418 -263q-6 -4 -13 0q-223 141 -416 262
q-7 5 -6 13q4 20 19 32.5t36 12.5h374z" />
    <glyph glyph-name="wenhao" unicode="&#xe615;" 
d="M507 760q-100 0 -184 -49t-133 -133t-49 -183.5t49 -184t133 -133.5t183.5 -49t184 49t133.5 133.5t49 184t-49 183.5t-133.5 133t-183.5 49v0zM504 180q-16 0 -27 11t-11 26.5t11 26.5t27 11t27.5 -11t11.5 -26.5t-11.5 -26.5t-27.5 -11v0zM649 438q-15 -26 -67 -69
q-27 -22 -33.5 -35.5t-5.5 -48.5h-77v20q0 38 12 62t49 54q38 30 45 39q11 15 11 33q0 25 -20 42.5t-53 17.5q-32 0 -54 -19q-11 -8 -19.5 -25t-10.5 -30q-2 -8 -21.5 -12t-38 1t-18.5 20q2 52 46 92q43 37 112 37q73 0 116 -38t43 -88q0 -29 -16 -53v0zM649 438z" />
    <glyph glyph-name="tupian1" unicode="&#xe626;" horiz-adv-x="1171" 
d="M73 750v0v-732q0 -27 23 -50t50 -23h878q33 0 53 20t20 53v732q0 27 -23 50t-50 23h-878q-33 0 -53 -20t-20 -53v0zM0 750v0q0 60 43 103t103 43h878q60 0 103 -43t43 -103v-732q0 -60 -43 -103t-103 -43h-878q-60 0 -103 43t-43 103v732zM37 55l285 344q22 22 46.5 22
t41.5 -22l212 -271l205 205q21 22 50 20.5t45 -28.5l212 -270l-37 -124l-987 -22zM768 567zM658 566.5q0 45.5 32.5 78t77.5 32.5t77.5 -32.5t32.5 -78t-32.5 -77.5t-77.5 -32t-77.5 32t-32.5 77.5z" />
    <glyph glyph-name="menu1" unicode="&#xe622;" 
d="M128 597h171v171h-171v-171zM128 299h171v170h-171v-170zM128 0h171v169h-171v-169zM426 597h172v171h-172v-171zM426 299h172v170h-172v-170zM426 0h172v169h-172v-169zM725 768v-171h171v171h-171zM725 299h171v170h-171v-170zM725 0h171v169h-171v-169z" />
    <glyph glyph-name="jiantou-copy-copy" unicode="&#xe616;" 
d="M454 715q16 29 39.5 29t40.5 -29l316 -548q17 -29 5 -49t-45 -20h-633q-33 0 -44.5 20t4.5 49z" />
    <glyph glyph-name="jiantou-copy-copy-copy-copy-copy-copy" unicode="&#xe617;" 
d="M570 53q-16 -29 -39.5 -29t-40.5 29l-316 548q-17 29 -5 49t45 20h633q33 0 44.5 -20t-4.5 -49z" />
    <glyph glyph-name="fabu" unicode="&#xe644;" 
d="M743 641l-337 -353l-125 132q-22 22 -52.5 22t-52.5 -22.5t-22 -55t22 -55.5l171 -179q3 -4 6 -7q22 -23 53 -23t52 22l390 409q22 22 22 54.5t-22 55.5t-52.5 23t-52.5 -23z" />
    <glyph glyph-name="guanli" unicode="&#xe64f;" 
d="M523 845q22 0 37.5 -15.5t15.5 -37.5v-6q0 -17 10.5 -30.5t26.5 -18.5q42 -12 75 -31q12 -6 25 -6q21 0 36 15l4 3q15 16 37.5 16t37.5 -16l17 -16q15 -16 15 -38t-15 -38l-4 -3q-12 -12 -14.5 -29t6.5 -32q18 -33 30 -75q5 -16 18.5 -26.5t30.5 -10.5h6q22 0 37.5 -15.5
t15.5 -37.5v-24q0 -22 -15.5 -37.5t-37.5 -15.5h-5q-17 0 -31 -10.5t-18 -26.5q-11 -38 -32 -75q-8 -15 -5.5 -32t14.5 -29l4 -3q15 -16 15 -38t-15 -38l-17 -16q-15 -16 -37.5 -16t-37.5 16l-4 3q-15 15 -36 15q-13 0 -25 -6q-33 -19 -75 -31q-16 -5 -26.5 -18.5
t-10.5 -30.5v-5q0 -22 -15.5 -38t-37.5 -16h-23q-23 0 -38.5 16t-15.5 38v5q0 17 -10 30.5t-27 18.5q-37 11 -75 31q-11 6 -24 6q-21 0 -36 -15l-4 -3q-16 -16 -38 -16t-38 16l-16 16q-16 16 -16 38t16 38l3 3q12 12 14.5 29t-5.5 32q-19 33 -31 75q-5 16 -18.5 26.5
t-30.5 10.5h-5q-23 0 -38.5 15.5t-15.5 37.5v23q0 23 16 38.5t38 15.5h5q17 0 30.5 10t18.5 27q11 38 31 75q8 15 5.5 31.5t-14.5 28.5l-3 4q-16 16 -16 38t16 38l16 16q16 16 38 16t38 -16l3 -3q15 -15 36 -15q14 0 25 6q34 19 75 31q17 5 27 18.5t10 30.5v5
q0 23 15.5 38.5t37.5 15.5h24zM523 896h-23q-44 0 -74.5 -30.5t-30.5 -74.5v-5q-47 -14 -86 -35l-3 3q-31 31 -74.5 31t-73.5 -31l-16 -16q-31 -31 -31 -74t31 -74l3 -4q-23 -42 -35 -85h-5q-44 0 -74.5 -30.5t-30.5 -74.5v-23q0 -43 30.5 -73.5t74.5 -30.5h5q13 -47 35 -86
l-3 -4q-31 -30 -31 -73.5t31 -73.5l16 -17q30 -30 73.5 -30t74.5 30l3 4q42 -23 86 -36v-5q0 -43 30.5 -73.5t73.5 -30.5h24q43 0 73.5 30.5t30.5 73.5v5q47 14 86 36l3 -4q31 -31 74.5 -31t73.5 31l17 16q30 31 30 74.5t-30 73.5l-4 4q23 42 35 85h6q43 0 73.5 31t30.5 74
v23q0 44 -30.5 74.5t-73.5 30.5h-6q-13 47 -35 86l4 3q30 31 30 74t-30 74l-17 16q-30 31 -73.5 31t-74.5 -31l-3 -3q-39 21 -86 35v5q0 44 -30.5 74.5t-73.5 30.5v0zM511.5 543q65.5 0 111.5 -46.5t46 -112t-46.5 -111.5t-111.5 -46t-111.5 46.5t-46.5 111.5t46.5 111.5
t112 46.5zM511 594q-87 0 -148 -61.5t-61 -148t61 -147.5t148 -61t148 61t61 147.5t-61 148t-148 61.5v0z" />
    <glyph glyph-name="lianjie" unicode="&#xe63d;" 
d="M262 -122q-102 0 -179 77t-77 182.5t77 182.5l135 134l89 -89l-134 -135q-39 -38 -39 -89t38.5 -89.5t90 -38.5t89.5 38l179 179q39 39 39 90q0 47 -32 90l-71 64l90 89l70 -70q71 -71 71 -179q0 -112 -77 -180l-179 -179q-33 -37 -81.5 -57t-98.5 -20zM467 205l-70 64
q-77 77 -77 182.5t77 182.5l179 179q77 77 182.5 77t182.5 -77t77 -182.5t-77 -182.5l-135 -134l-89 89l134 135q39 38 39 89t-38.5 89.5t-92 38.5t-87.5 -38l-186 -173q-38 -38 -38 -89.5t38 -89.5l71 -71z" />
    <glyph glyph-name="yinyong1disc" unicode="&#xe63e;" 
d="M832 386h-128q0 79 56 135.5t136 56.5q27 0 45.5 18.5t18.5 45t-19 45.5t-45 19q-87 0 -160.5 -43t-116.5 -116.5t-43 -160.5v-256q0 -53 37.5 -90.5t90.5 -37.5h128q53 0 90.5 37.5t37.5 90.5v128q0 53 -37.5 90.5t-90.5 37.5zM384 578q27 0 45.5 18.5t18.5 45t-19 45.5
t-45 19q-87 0 -160.5 -43t-116.5 -116.5t-43 -160.5v-256q0 -53 37.5 -90.5t90.5 -37.5h128q53 0 90.5 37.5t37.5 90.5v128q0 53 -37.5 90.5t-90.5 37.5h-128q0 79 56 135.5t136 56.5z" />
    <glyph glyph-name="book" unicode="&#xe620;" 
d="M742 -26h-512q-10 0 -17.5 7.5t-7.5 18.5t7.5 18.5t17.5 7.5h512q11 0 18.5 -7.5t7.5 -18.5t-7.5 -18.5t-18.5 -7.5zM844.5 742q-10.5 0 -18 -7.5t-7.5 -17.5v-768q0 -11 -7.5 -18.5t-17.5 -7.5h-564q-31 0 -53.5 22.5t-22.5 54.5t22.5 54.5t53.5 22.5h461
q32 0 54.5 22.5t22.5 54.5v614q0 32 -22.5 54.5t-54.5 22.5h-512q-32 0 -54.5 -22.5t-22.5 -54.5v-768q0 -53 37.5 -90.5t90.5 -37.5h564q31 0 53.5 22.5t22.5 54.5v768q0 10 -7.5 17.5t-18 7.5zM179 794h512q11 0 18.5 -7.5t7.5 -18.5v-614q0 -11 -7.5 -18.5t-18.5 -7.5
h-461q-42 0 -76 -26v666q0 11 7.5 18.5t17.5 7.5z" />
    <glyph glyph-name="left" unicode="&#xe606;" 
d="M745 849l-466 -465l466 -465v930v0z" />
    <glyph glyph-name="iconyonghu" unicode="&#xe60d;" 
d="M509 594zM271 593.5q0 98.5 69.5 168.5t168.5 70t169 -70t70 -168.5t-70 -168.5t-169 -70t-168.5 70t-69.5 168.5zM888 102q-5 18 -16 35q-27 54 -67 95q-55 57 -131.5 88.5t-161.5 31.5q-117 0 -215 -60.5t-148 -159.5q-4 -7 -13 -36q-16 -49 0 -87q15 -37 53 -57
q35 -19 87 -19v-1h236h236v1q54 0 87 18q39 21 52 52q9 22 10 47q0 25 -9 52z" />
    <glyph glyph-name="menu2" unicode="&#xe62b;" 
d="M246 722v-113h758v113h-758zM246 307h758v114h-758v-114zM246 6h758v113h-758v-113zM20 609h103v113h-103v-113zM20 302h103v113h-103v-113zM20 15h103v114h-103v-114z" />
    <glyph glyph-name="android2" unicode="&#xe633;" 
d="M213 351v-239q0 -15 9 -26t22 -11h76v-139q0 -27 18.5 -45.5t45.5 -18.5t45.5 18.5t18.5 45.5v139h131v-139q0 -30 23 -50q17 -14 39 -14h1h1q26 0 45 18.5t19 45.5v139h73q14 0 22.5 11t8.5 26v239v204h-598v-204v0zM917 597q-26 0 -45 -18.5t-19 -45.5v-256
q0 -26 19 -45t45.5 -19t45 19t18.5 45v256q0 27 -18.5 45.5t-45.5 18.5v0zM107 597q-27 0 -45.5 -18.5t-18.5 -45.5v-256q0 -26 18.5 -45t45 -19t45.5 19t19 45v256q0 27 -19 45.5t-45 18.5v0zM659 829l50 58q1 3 -4 7q-6 4 -7 1l-51 -61q-59 24 -135 24q-77 0 -136 -23
l-50 60q-2 2 -7.5 -1.5t-3.5 -6.5l49 -58q-37 -15 -65 -41.5t-43 -52t-25 -55.5t-13.5 -48.5t-4.5 -34.5h597q-1 16 -4 34.5t-13 48t-25.5 55t-43.5 52t-65 42.5v0zM381 696q-15 0 -25.5 10.5t-10.5 25t10.5 25t25.5 10.5t25.5 -10.5t10.5 -25t-10.5 -25t-25.5 -10.5v0z
M643 696q-15 0 -25.5 10.5t-10.5 25t10.5 25t25.5 10.5t25.5 -10.5t10.5 -25t-10.5 -25t-25.5 -10.5v0z" />
    <glyph glyph-name="fengexian" unicode="&#xe63f;" 
d="M1 407h1022v-85h-1022v85z" />
    <glyph glyph-name="yishoujian-copy" unicode="&#xe65d;" horiz-adv-x="1000" 
d="M893 328v-292h-758v292h-58v-292q0 -2 0.5 -6t3.5 -14t8.5 -17.5t17.5 -14t28 -6.5h758q3 0 6.5 0.5t13.5 3.5t18 8.5t14 17.5t6 28v292h-58zM511 153q20 0 42.5 14.5t35.5 29.5l13 14l175 233q0 26 -15 40.5t-29 16.5l-15 2l-175 -233v524h-58v-524l-175 233
q-26 0 -40.5 -14.5t-15.5 -29.5l-2 -15l175 -233q5 -6 13 -16t30 -26t41 -16z" />
    <glyph glyph-name="down1" unicode="&#xe64a;" 
d="M8 794q-8 -8 -7 -20.5t10 -21.5l478 -480q10 -10 24 -9q13 -1 24 9l477 480q9 9 10 21.5t-7 20.5t-20 7t-21 -10l-463 -466l-464 466q-9 9 -21 10t-20 -7v0zM8 794zM8 498q-8 -8 -7 -20t10 -21l478 -480q10 -10 24 -10q13 0 24 10l477 480q9 9 10 21t-7 20t-20 7.5
t-21 -9.5l-463 -466l-464 466q-9 9 -21 9.5t-20 -7.5v0zM8 498z" />
    <glyph glyph-name="lishi" unicode="&#xe640;" 
d="M527 -47q-91 0 -174 35.5t-143 95.5t-95.5 143t-35.5 174t35.5 174t95.5 143t143 95.5t174 35.5t174 -35.5t143 -95.5t95.5 -143t35.5 -174t-35.5 -174t-95.5 -143t-143 -95.5t-174 -35.5zM527 768q-100 0 -184 -49.5t-133.5 -133.5t-49.5 -184t49.5 -184t133.5 -133
t184 -49t184 49t133.5 133t49.5 184t-49.5 184t-133.5 133.5t-184 49.5zM717 360h-163h-54q-6 0 -10 4t-4 10v54v217q0 6 4 10t10 4h54q6 0 10 -4t4 -10v-203h149q6 0 10 -4t4 -10v-54q0 -6 -4 -10t-10 -4v0z" />
    <glyph glyph-name="jia" unicode="&#xe624;" 
d="M768 446h-218v228q0 20 -14 33.5t-33.5 13.5t-33 -13.5t-13.5 -33.5v-228h-218q-20 0 -33.5 -13.5t-13.5 -33t13.5 -33.5t33.5 -14h218v-218q0 -19 13.5 -33t33 -14t33.5 14t14 33v218h218q19 0 33 14t14 33.5t-14 33t-33 13.5z" />
    <glyph glyph-name="undo-copy" unicode="&#xe641;" 
d="M786 637q-88 88 -209.5 111t-229.5 -24l-36 61q-10 18 -35 24q-12 3 -24.5 -4.5t-19.5 -18.5l-100 -203q-15 -25 -2 -47t42 -22l212 12q26 0 39.5 22.5t-0.5 45.5l-33 56q84 34 176.5 15t159.5 -87q93 -92 93.5 -222.5t-91.5 -222.5t-222 -91.5t-223 93.5q-43 43 -67 99
q2 25 -22 50q-13 12 -30.5 12t-29.5 -12q-26 -27 -4 -58q30 -86 94 -150q77 -77 179.5 -104.5t205.5 -1t179 103t103 179t-1 205.5t-104 179z" />
    <glyph glyph-name="productpullup" unicode="&#xe64b;" 
d="M566 781q-26 27 -61.5 27t-60.5 -29l-371 -424q-8 -9 -7 -21t10 -20t21 -7t20 10l371 424q8 8 17.5 8.5t16.5 -8.5l385 -425q8 -9 20.5 -9.5t21.5 8t9.5 20.5t-7.5 21l-385 425v0zM566 781zM566 434q-26 28 -61.5 27.5t-60.5 -28.5l-371 -424q-8 -10 -7 -22t10 -20t21 -7
t20 10l371 424q8 9 17.5 9t16.5 -8l385 -425q8 -9 20.5 -9.5t21.5 7.5t9.5 20t-7.5 21l-385 425v0zM566 434z" />
    <glyph glyph-name="login" unicode="&#xe60a;" 
d="M427 160v139h-299v170h299v139l224 -224zM341 811h384q36 0 61 -25t25 -61v-682q0 -36 -25 -61t-61 -25h-384q-35 0 -60 25t-25 61v170h85v-170h384v682h-384v-170h-85v170q0 36 25 61t60 25z" />
    <glyph glyph-name="article" unicode="&#xe65c;" 
d="M855 896h-707q-28 0 -48.5 -10t-29.5 -24.5t-14.5 -28.5t-6.5 -24v-11v-828q0 -4 0.5 -11t6 -23.5t15 -29.5t30 -23.5t48.5 -10.5h585l217 171v755q0 4 -1 11t-6 23.5t-14 29.5t-29 23.5t-46 10.5zM902 67l-195 -146h-536q-21 0 -36 8t-22 17.5t-11 22t-4 17.5v8v0v780v8
t4 17.5t11 22t22 17.5t36 8h658q20 0 35.5 -7.5t22 -18t10.5 -21.5t5 -18v-8v-707zM219 360h561v-49h-561v49zM219 555h561v-49h-561v49zM219 750h269v-49h-269v49zM853 189h-219v-219h49v170h170v49z" />
    <glyph glyph-name="wenjianjia" unicode="&#xe7a0;" 
d="M861 -8q0 -23 -16.5 -39.5t-39.5 -16.5h-699l98 461q0 24 16.5 40t39.5 16h643q23 0 39.5 -16t16.5 -40l-98 -405v0v0zM218 495h629v55q0 23 -16.5 39.5t-39.5 16.5h-335v51q0 23 -16.5 39.5t-39.5 16.5h-280q-23 0 -39.5 -16.5t-16.5 -39.5v-665l98 447q0 23 16.5 39.5
t39.5 16.5v0v0zM218 495z" />
    <glyph glyph-name="fasongchenggong" unicode="&#xe65e;" horiz-adv-x="1036" 
d="M1012 616q-6 4 -12.5 2.5t-10.5 -7.5q-23 -38 -23 -81v-416q0 -26 -18 -44t-44 -18h-645q-25 0 -43 18t-18 44v479q0 26 18 44t43 18h645q25 0 31 -10q4 -7 -6 -16l-340 -347l-317 324q-4 4 -11 4.5t-12 -4.5t-5 -11.5t5 -11.5l328 -336q5 -5 12 -5v0q6 0 11 5l198 201
q26 26 64.5 65t49.5 51v0l29 29v0l1 2v0l11 10q27 28 10 57q-15 26 -59 26h-645q-39 0 -66.5 -28t-27.5 -67v-37h-145q-7 0 -11.5 -5t-4.5 -11.5t4.5 -11.5t11.5 -5h145v-51h-108q-7 0 -11.5 -5t-4.5 -12t4.5 -11.5t11.5 -4.5h108v-325q0 -39 27.5 -67t66.5 -28h645
q39 0 66.5 28t27.5 67v416v0q0 34 19 63q9 14 -5 23z" />
    <glyph glyph-name="thumb-up" unicode="&#xe64d;" 
d="M974 351q-23 -86 -123 -333q-1 -2 -2 -3q-14 -26 -39.5 -41t-54.5 -16q-2 -1 -5 -1h-344q-9 0 -16 7t-7 16.5t7 16t16 6.5h340q3 1 4 1q39 0 59 32q101 253 121 327q12 46 -12 87t-69 54q-13 3 -30 3h-138q-12 0 -18.5 10t-2.5 22q21 55 21 221q0 28 -20 48t-48.5 20
t-48.5 -20t-20 -48v-23q0 -114 -80.5 -194.5t-194.5 -80.5q-10 0 -16.5 6.5t-6.5 16t6.5 16.5t16.5 7q94 0 161.5 67t67.5 162v23q0 47 33.5 80.5t81 33.5t81 -33.5t33.5 -80.5q0 -136 -15 -207h107q23 0 41 -5q65 -17 98 -75t16 -122v0zM269 -43h-115q-38 0 -64.5 27
t-26.5 65v367q0 38 26.5 65t64.5 27h115q9 0 16 -7t7 -16v-505q0 -9 -7 -16t-16 -7v0zM246 462h-92q-19 0 -32.5 -13.5t-13.5 -32.5v-367q0 -19 13.5 -32.5t32.5 -13.5h92v459z" />
    <glyph glyph-name="fabulishi" unicode="&#xe6a6;" 
d="M512 806v86l-199 -114l199 -115v86q110 0 204.5 -55t149 -149t54.5 -205t-55 -205.5t-149.5 -149.5t-205.5 -55t-205 55t-149 149.5t-55 205.5q0 11 -8.5 19.5t-20 8.5t-20 -8.5t-8.5 -19.5q0 -95 37 -181.5t99.5 -148.5t149 -99t181 -37t181 37t148.5 99t99 148.5
t37 181t-36.5 181t-99 148.5t-148.5 99t-180 38zM476 569q-12 0 -20 -8t-8 -20v-232q0 -12 8 -20l201 -198q8 -8 19.5 -8t20 8.5t8.5 20t-9 19.5l-192 190v220q0 12 -8 20t-20 8z" />
    <glyph glyph-name="contentmanagement" unicode="&#xe650;" 
d="M259 550h335q11 0 18.5 -7.5t7.5 -18.5v0q0 -11 -7.5 -18.5t-18.5 -7.5h-335q-11 0 -19 7.5t-8 18.5v0q0 11 8 18.5t19 7.5zM261 394h274q11 0 18.5 -8t7.5 -19v0q0 -10 -7.5 -18t-18.5 -8h-274q-11 0 -19 8t-8 18v0q0 11 8 19t19 8zM267 219h162q10 0 18 -8t8 -19v0
q0 -10 -8 -18t-18 -8h-162q-11 0 -18.5 8t-7.5 18v0q0 11 7.5 19t18.5 8zM120 69v504q0 13 6 21t18.5 11.5t22.5 4t28 0.5h111q15 0 26 11t11 27v34q0 24 0.5 38t7 31.5t19.5 20.5h295q30 0 49 -21.5t19 -53.5v-247q0 -11 7.5 -19t19.5 -8v0q11 0 19 8t8 19v230
q0 65 -31.5 107.5t-90.5 42.5h-299q-28 0 -57.5 -23t-84.5 -80q-21 -21 -28 -27q-6 -7 -27 -28q-19 -18 -43 -39t-34 -30.5t-18 -22.5t-8 -27v-467q0 -61 43.5 -104.5t104.5 -43.5h348q12 0 20 8.5t8 19.5v0q0 12 -8 20t-20 8h-367q-31 0 -53 22t-22 53zM778 -61h-73
q-10 0 -17 6t-9 15l-8 47q-1 2 -3 4l-26 15q-3 1 -5 0l-37 -14q-19 -8 -31 10l-42 67q-6 9 -4 18.5t9 15.5l35 29q2 1 2 4v27q0 3 -2 5l-35 28q-17 14 -5 33l39 67q5 9 14 12t18 -1l39 -17q3 -1 6 1l23 13q2 2 2 4l15 49q5 19 25 19h69q9 0 16.5 -6t8.5 -15l8 -44q0 -2 3 -4
l26 -18q3 -1 5 0l42 14q20 7 31 -11l37 -64q5 -9 3.5 -18.5t-9.5 -15.5l-34 -27q-3 -1 -3 -4v-30q0 -2 2 -4l32 -32q14 -14 5 -31l-35 -65q-5 -9 -14 -12.5t-19 0.5l-35 15q-3 1 -6 0l-26 -17q-3 -1 -3 -4l-9 -43q-2 -9 -9 -15t-16 -6v0zM663 68l32 -22q9 -5 11 -15l7 -41
q1 -5 6 -5h44q5 0 6 5l7 38q2 10 11 15l32 23q10 6 21 2l30 -13q5 -2 7 2l22 48q2 3 -1 6l-29 28q-7 7 -7 17l1 34q0 11 8 18l30 23q4 3 1 7l-23 37q-2 4 -6 2l-36 -10q-11 -4 -20 2l-33 23q-8 6 -9 15l-7 38q-1 4 -5 4h-42q-4 0 -5 -3l-13 -43q-2 -9 -10 -13l-29 -22
q-10 -6 -20 -1l-34 14q-4 2 -7 -2l-25 -49q-2 -4 1 -7l31 -25q8 -7 8 -17v-23q0 -11 -9 -18l-30 -24q-4 -3 -1 -7l28 -49q2 -4 6 -3l32 13q10 4 19 -2v0zM736 90q-33 0 -56 23.5t-23 56t23 55.5t56 23t56 -23t23 -55.5t-23 -56t-56 -23.5zM736 213q-18 0 -31 -12.5t-13 -31
t13 -31t31 -12.5t31 12.5t13 31t-13 31t-31 12.5z" />
    <glyph glyph-name="management" unicode="&#xe651;" 
d="M388 815h-332q-13 0 -23 -9.5t-10 -23.5v-351q0 -14 10 -23.5t23 -9.5h332q14 0 23.5 9.5t9.5 23.5v351q0 14 -9.5 23.5t-23.5 9.5v0zM355 464h-265v285h265v-285v0zM388 284h-332q-13 0 -23 -9.5t-10 -23.5v-331q0 -14 10 -23.5t23 -9.5h332q14 0 23.5 9.5t9.5 23.5v331
q0 14 -9.5 23.5t-23.5 9.5v0zM355 -47h-265v265h265v-265v0zM918 284h-331q-14 0 -23.5 -9.5t-9.5 -23.5v-331q0 -14 9.5 -23.5t23.5 -9.5h331q14 0 24 9.5t10 23.5v331q0 14 -10 23.5t-24 9.5v0zM885 -47h-265v265h265v-265v0v0zM1008 637l-234 235q-10 9 -23.5 9t-23.5 -9
l-235 -235q-9 -10 -9 -23.5t9 -23.5l235 -234q10 -10 23.5 -10t23.5 10l234 234q10 10 10 23.5t-10 23.5v0zM750 426l-187 188l187 187l188 -187l-188 -188v0z" />
    <glyph glyph-name="shuzizhengwujuchangxinxiang01" unicode="&#xe728;" 
d="M838 389l-31 -41l-20 -4l-20 23l-57 -84l26 -33l74 15l52 76zM978 443q-3 62 -42 91t-95 14q-51 -13 -102 -60q-7 82 -44 133q-4 5 -8.5 12t-5.5 8q-9 16 -18 21t-33 7l-275 25l-2 76l-160 5l2 -75q-13 -1 -26 -6q-54 -19 -90 -97q-35 -74 -34 -158l5 -350l365 -96
l339 46l151 213q78 109 73 191zM523 390l-90 13q0 22 5 54l100 -10l56 -149l-42 -64zM487 342l31 -159l-36 -52l-39 9l-6 208zM450 87l-4 -5v6zM626 346v0l-58 151l-114 11q37 92 105 113q53 16 91 -25q42 -45 46 -134l1 -20q-40 -48 -71 -96zM196 653l2 -93l70 -11l-2 -161
l76 -10l15 265l128 -8q-41 -41 -65 -95q-30 -69 -27 -150l10 -341l-315 80l-4 314q-1 71 29 132q28 61 68 75q6 2 15 3zM489 56l174 259q107 159 184 179q13 3 25 3q19 0 34 -9q21 -13 24 -46q4 -67 -87 -193l-114 -159z" />
    <glyph glyph-name="mailbox" unicode="&#xe65f;" 
d="M885 688h-746q-31 0 -53 -22t-22 -53v-458q0 -31 22 -53t53 -22h746q31 0 53 22t22 53v458q0 31 -22 53t-53 22v0v0zM867 634l-297 -264q-39 -34 -58 -34t-58 34l-297 264h710v0v0zM120 172v414l232 -204l-232 -210v0v0zM159 134l233 207l38 -33q34 -30 82 -30t82 30
l38 33l233 -207h-706v0v0zM904 172l-232 210l232 204v-414v0v0z" />
    <glyph glyph-name="yifasong" unicode="&#xe660;" 
d="M916 785h-780q-23 0 -39.5 -16.5t-16.5 -38.5v-604q0 -22 16.5 -38t39.5 -16h420q0 27 5 54h-385l267 263l27 -16q1 0 18.5 -9.5t17.5 -10t1 -0.5t1 -1v0q9 -8 20.5 -8t19.5 8q1 1 17 10t17 11l28 17l75 -74q23 16 49 28l-86 84l268 263v-329q29 -6 56 -18v386
q0 22 -16.5 38.5t-39.5 16.5zM136 165v526l267 -263zM592 449l-1 -0.5t-1.5 -1t-0.5 -1t-1 -0.5l-62 -62l-350 346h701zM902 251l-168 -179l-59 59q-5 1 -8.5 2t-14.5 0t-18 -6t-13 -19t-6 -36q6 -2 35.5 -31.5t56.5 -58.5l27 -29l238 237l-5 22q-15 40 -65 39z" />
    <glyph glyph-name="iconfonthuidayes" unicode="&#xe656;" 
d="M520 896q-95 0 -183 -35t-153 -94.5t-104 -142t-39 -172.5q0 -124 64 -221.5t172 -161.5l-46 -153q-4 -11 1.5 -22t16.5 -15q21 -7 42 -7q90 0 176 66q11 8 14 18.5t-4 21.5q-12 16 -43 -7q-74 -56 -155 -55l44 151q1 1 1 3q6 24 -15 35q-102 53 -162.5 147t-60.5 202
t60 200t160 145t214 53t210.5 -54t152 -146t55.5 -200q0 -107 -55 -196.5t-149.5 -143t-207.5 -56.5q-25 -1 -27 -25q-2 -21 26 -27h1q6 -2 12 -1q123 5 225.5 66t161 161.5t58.5 218.5q0 91 -36.5 173.5t-98.5 142.5t-147.5 95.5t-180.5 35.5v0zM434 238q13 -10 29 -8.5
t27 13.5l287 368q10 13 8.5 29t-14 26.5t-28.5 9t-27 -13.5l-262 -338l-151 142q-13 10 -29 8.5t-26.5 -14t-9 -28.5t13.5 -27l182 -167v0z" />
    <glyph glyph-name="iconfonthuidano" unicode="&#xe658;" 
d="M520 896q-95 0 -183 -35t-153 -94.5t-104 -142t-39 -172.5q0 -124 64 -221.5t172 -161.5l-46 -153q-4 -11 1.5 -22t16.5 -15q21 -7 42 -7q90 0 176 66q11 8 14 18.5t-4 21.5q-12 16 -43 -7q-74 -56 -155 -55l44 151q1 1 1 3q6 24 -15 35q-102 53 -162.5 147t-60.5 202
t60 200t160 145t214 53t210.5 -54t152 -146t55.5 -200q0 -107 -55 -196.5t-149.5 -143t-207.5 -56.5q-25 -1 -27 -25q-2 -21 26 -27h1q6 -2 12 -1q123 5 225.5 66t161 161.5t58.5 218.5q0 91 -36.5 173.5t-98.5 142.5t-147.5 95.5t-180.5 35.5v0zM295 274zM370 312
q0 -16 11 -27t27 -11t27 11t11 27v300q0 16 -11 27t-27 11t-27 -11t-11 -27v-300zM372 311q0 -15 11 -26t27 -11h300q16 0 27 11t11 26.5t-11 26.5t-27 11h-300q-16 0 -27 -11t-11 -27v0z" />
    <glyph glyph-name="publishtianse" unicode="&#xe6da;" horiz-adv-x="1025" 
d="M68 -128h-1q-15 0 -26.5 10t-13.5 25l-2 6q-38 166 -19 310.5t93 250.5q132 190 424 237v143q0 26 23.5 37.5t43.5 -4.5l418 -329q16 -12 16 -33q0 -20 -16 -32l-418 -329q-21 -16 -44 -5q-23 12 -23 38v165q-52 -7 -99 -22t-101.5 -48.5t-96 -81.5t-74 -125.5
t-43.5 -175.5q-2 -16 -14 -26.5t-27 -10.5z" />
  </font>
</defs>
</svg>
